Coordinates
version=1
nRows=12
nColumns=24
inDegrees=yes

Units are S.I. units (second, meters, Newtons, ...)
Angles are in degrees.

endheader
time	pelvis_tilt	pelvis_list	pelvis_rotation	pelvis_tx	pelvis_ty	pelvis_tz	hip_flexion_r	hip_adduction_r	hip_rotation_r	knee_angle_r	ankle_angle_r	subtalar_angle_r	mtp_angle_r	hip_flexion_l	hip_adduction_l	hip_rotation_l	knee_angle_l	ankle_angle_l	subtalar_angle_l	mtp_angle_l	lumbar_extension	lumbar_bending	lumbar_rotation
      1.58416667	     -3.22838223	      7.92032251	     -2.09160734	      0.46927168	      0.98632894	      0.29751761	     17.51983626	     -9.67766816	      0.90352172	    -68.47378850	     -0.67140971	     -9.87248285	      2.30070075	     13.38015260	     13.32879570	     -0.33736745	    -11.84188969	      1.75148686	    -13.47663206	     -1.32911058	      2.78637910	     -5.86042463	      5.02684541
      1.58833333	     -3.13778162	      7.86182859	     -1.98225963	      0.47396924	      0.98704323	      0.29724662	     18.08876585	     -9.56725464	      0.93578329	    -68.41784982	     -0.10398308	    -10.23544746	      2.20318247	     12.78885609	     13.32790379	     -0.11251048	    -11.52071715	      1.80037072	    -13.50027804	     -1.34903469	      2.63011723	     -5.81942338	      4.81000307
      1.59250000	     -3.08828427	      7.79780219	     -1.84460424	      0.47864326	      0.98765744	      0.29694345	     18.68981078	     -9.45835630	      0.94473601	    -68.32551292	      0.51939942	    -10.43056511	      2.16584986	     12.26557727	     13.31628607	      0.08270984	    -11.24970815	      1.88244687	    -13.43354172	     -1.35544980	      2.52615721	     -5.75716196	      4.71422400
      1.59666667	     -2.98548346	      7.74787763	     -1.72733073	      0.48333501	      0.98832638	      0.29666754	     19.22279368	     -9.36283098	      0.97099250	    -68.17885199	      1.08622231	    -10.67328274	      2.06441908	     11.66163707	     13.32019191	      0.30772093	    -10.92736471	      1.93317316	    -13.45483732	     -1.37654307	      2.35778762	     -5.71711216	      4.48358928
      1.60083333	     -2.92240979	      7.67945842	     -1.59697424	      0.48799031	      0.98891459	      0.29639922	     19.78648051	     -9.24103647	      0.99523239	    -67.98656540	      1.66678658	    -10.82275985	      1.97475193	     11.12189024	     13.29772770	      0.52024137	    -10.64893028	      2.00804524	    -13.42909254	     -1.39497704	      2.23154222	     -5.66410585	      4.32221305
      1.60500000	     -2.87744435	      7.60169076	     -1.45008122	      0.49263687	      0.98945044	      0.29610971	     20.35331821	     -9.11635904	      0.99858073	    -67.74604707	      2.23934751	    -10.92299078	      1.93579133	     10.61354340	     13.26248474	      0.72754753	    -10.39593725	      2.08890259	    -13.35758720	     -1.40220196	      2.13135161	     -5.58459429	      4.22037152
      1.60916667	     -2.82449842	      7.54151506	     -1.30945006	      0.49725848	      0.98993453	      0.29583556	     20.91144373	     -9.00812042	      1.02062121	    -67.47814444	      2.79569045	    -11.00199050	      1.89517134	     10.09970488	     13.24276309	      0.93288972	    -10.14165605	      2.17543129	    -13.31365134	     -1.41011036	      2.01175517	     -5.53323283	      4.06944406
      1.61333333	     -2.76094442	      7.48168357	     -1.16617032	      0.50189027	      0.99042977	      0.29557030	     21.44017659	     -8.90354838	      1.03507364	    -67.15629285	      3.32404790	    -11.03921884	      1.85419758	      9.57159304	     13.22128087	      1.14666856	     -9.88262856	      2.25202709	    -13.27991390	     -1.41900912	      1.88623177	     -5.48563566	      3.90122320
      1.61750000	     -2.69014289	      7.42498233	     -1.01738816	      0.50652418	      0.99090181	      0.29528765	     21.94391948	     -8.80738617	      1.04744532	    -66.78344943	      3.80725083	    -11.00758869	      1.75126774	      9.02371939	     13.20572032	      1.40506642	     -9.59893109	      2.30636585	    -13.32481835	     -1.44448253	      1.75582281	     -5.44565143	      3.60871689
      1.62166667	     -2.63779332	      7.34349506	     -0.86351907	      0.51112642	      0.99132984	      0.29501951	     22.45491042	     -8.68168702	      1.04843873	    -66.36757194	      4.29159995	    -11.00196471	      1.71578443	      8.52599618	     13.15466317	      1.61598610	     -9.37685365	      2.40637507	    -13.25892698	     -1.45222915	      1.64311656	     -5.36333808	      3.50868117
      1.62583333	     -2.57904070	      7.27866141	     -0.70334160	      0.51572194	      0.99172479	      0.29475135	     22.94582602	     -8.57640286	      1.05464645	    -65.91549488	      4.77151319	    -10.94975579	      1.67482718	      8.02196813	     13.12067726	      1.83963689	     -9.15169298	      2.50145884	    -13.22640046	     -1.46276850	      1.51470010	     -5.30595369	      3.33625244
      1.63000000	     -2.49935458	      7.23235973	     -0.55359130	      0.52032649	      0.99211818	      0.29446622	     23.40704656	     -8.50096373	      1.06302699	    -65.42352200	      5.18499044	    -10.82913142	      1.59151799	      7.47832931	     13.10767427	      2.08974313	     -8.88785764	      2.57641209	    -13.25679032	     -1.48724665	      1.36787098	     -5.26171684	      3.05168547
